<svg width="630" height="626" viewBox="0 0 630 626" fill="none" xmlns="http://www.w3.org/2000/svg">
<path d="M456.37 336.449C411.775 441.45 292.986 500.273 189.971 484.407C173.209 481.824 127.254 474.133 86.5675 437.849C8.24315 368 -8.50733 229.688 54.6744 132.217C100.66 61.2754 183.094 21.0601 261.421 23.0721C278.293 23.5047 342.953 26.175 399.779 73.0322C408.125 79.9149 426.534 96.2681 443.126 122.215C482.084 183.137 485.432 268.017 456.37 336.449Z" fill="url(#paint0_linear_915_518)" fill-opacity="0.7"/>
<path d="M62.4971 98.7539L101.78 141.753C77.1992 160.295 61.7806 196.679 102.928 239.946L47.6089 266.759C8.83715 198.866 14.3198 145.217 62.4971 98.7539Z" fill="url(#paint1_linear_915_518)"/>
<path d="M39.3596 251.162L77.4719 251.775L84.3157 214.239C105.249 257.234 154.717 275.202 211.322 256.862L239.904 309.996C158.209 347.237 75.5147 328.124 39.3596 251.162Z" fill="#7D97F4"/>
<path d="M358.982 194.361C389.876 133.295 471.416 110.77 530.054 144.21L589.488 124.536C520.069 31.9313 393.93 49.5016 315.568 142.041L358.982 194.361Z" fill="url(#paint2_linear_915_518)"/>
<path d="M496.093 259.002L521.31 317.91C613.323 279.584 641.165 149.81 558.091 92.6328L558.695 130.802L519.598 138.937C577.181 166.254 551.522 243.666 496.093 259.002Z" fill="#91B3FA"/>
<path d="M331.849 275.669C419.022 338.363 495.298 346.538 556.119 296.719L513.312 281.507L525.226 243.38C471.849 280.425 422.243 268.371 374.624 230.44L331.849 275.669Z" fill="#7D97F4"/>
<path d="M62.4971 98.7531V140.051L101.78 141.752C127.253 125.228 164.138 126.562 210.571 141.42L237.553 81.5992C166.997 51.3854 109.155 58.599 62.4971 98.7531Z" fill="#7D97F4"/>
<path d="M210.571 141.42L188.503 95.4511L237.553 81.5986C269.416 98.2178 295.077 118.572 315.57 142.039C338.129 191.719 369.087 234.118 407.806 252.214L356.99 252.749L364.815 297.073C344.905 285.15 325.692 271.767 308.788 257.177L270.631 189.335C257.324 169.131 238.762 152.677 210.571 141.42Z" fill="url(#paint3_linear_915_518)"/>
<path d="M315.57 142.041C300.644 158.001 290.873 181.53 276.847 198.248C254.477 224.913 226.58 259.365 176.238 263.848L217.337 285.113L192.87 325.233C274.968 308.916 332.411 255.364 358.984 194.363V135.656L315.57 142.041Z" fill="#91B3FA"/>
<path opacity="0.95" d="M320.838 347.017H284.881C254.75 347.017 230.329 322.596 230.329 292.465V256.508C230.329 226.376 254.75 201.955 284.881 201.955H320.838C350.97 201.955 375.391 226.376 375.391 256.508V292.465C375.391 322.596 350.956 347.017 320.838 347.017Z" fill="url(#paint4_linear_915_518)"/>
<path d="M336.435 314.002H269.27V317.316H336.435V314.002Z" fill="#96BFE6"/>
<path d="M326.922 324.447H278.783V327.762H326.922V324.447Z" fill="#96BFE6"/>
<path opacity="0.95" d="M523.122 485.307H473.907C432.67 485.307 399.252 451.875 399.252 410.652V326.944C399.252 285.706 432.684 252.289 473.907 252.289H523.122C564.359 252.289 597.777 285.721 597.777 326.944V410.652C597.777 451.875 564.359 485.307 523.122 485.307Z" fill="url(#paint5_linear_915_518)"/>
<path d="M505 389.747H489.26V392.66H505V389.747Z" fill="#4598E6"/>
<path d="M521.113 416.464H429.484V422.103H521.113V416.464Z" fill="#96BFE6"/>
<path d="M503.579 443.583H429.484V449.236H503.579V443.583Z" fill="#96BFE6"/>
<path d="M472.917 430.022H429.484V435.676H472.917V430.022Z" fill="#96BFE6"/>
<path d="M545.075 275.504V278.359H561.863V294.114H564.718V275.504H545.075ZM431.063 294.114H433.918V278.359H450.706V275.504H431.063V294.114ZM561.863 375.426V391.195H545.075V394.05H564.718V375.44H561.863V375.426ZM433.918 375.426H431.063V394.036H450.706V391.181H433.918V375.426Z" fill="#4598E6"/>
<path d="M555.836 449.637C546.582 449.637 539.049 442.104 539.049 432.849C539.049 423.594 546.582 416.062 555.836 416.062C565.091 416.062 572.624 423.594 572.624 432.849C572.624 442.104 565.091 449.637 555.836 449.637ZM555.836 419.304C548.375 419.304 542.291 425.374 542.291 432.849C542.291 440.31 548.361 446.394 555.836 446.394C563.312 446.394 569.381 440.325 569.381 432.849C569.367 425.374 563.298 419.304 555.836 419.304Z" fill="#4598E6"/>
<path d="M554.76 439.45L547.127 431.831L549.437 429.521L554.76 434.858L562.236 427.383L564.531 429.679L554.76 439.45Z" fill="#4598E6"/>
<path d="M565.923 580.595C565.923 587.64 443.933 593.35 293.462 593.35C142.99 593.35 21 587.64 21 580.595C21 573.55 142.99 567.839 293.462 567.839C443.948 567.839 565.923 573.55 565.923 580.595Z" fill="url(#paint6_linear_915_518)"/>
<path opacity="0.95" d="M351.73 207.393H253.961V291.288H351.73V207.393Z" fill="url(#paint7_linear_915_518)"/>
<path d="M340.209 258.457C336.995 249.934 329.247 246.031 325.602 244.812C324.296 244.381 321.972 243.621 319.533 242.831C315.128 241.411 310.307 239.861 310.307 239.861H295.083C295.083 239.861 289.817 241.626 284.207 243.592C279.042 245.4 273.618 247.38 271.781 248.298C267.95 250.207 261.522 263.866 260.216 265.43C259.542 266.234 256.558 271.557 253.616 277.497H270.016C271.753 274.527 273.087 272.217 273.087 272.217C273.087 272.217 274.12 274.498 275.383 277.497H327.898C328.73 274.011 329.247 269.606 329.247 269.606C329.247 269.606 332.059 273.437 335.129 277.497H350.267C346.579 271.299 342.017 263.264 340.209 258.457Z" fill="#385369"/>
<path d="M304.496 198.036C304.496 198.036 316.39 199.916 314.583 218.525C312.775 237.135 302.272 235.614 301.569 235.6C300.865 235.586 291.022 235.944 290.262 213.217C290.262 213.202 289.932 196.4 304.496 198.036Z" fill="#EEA886"/>
<path d="M314.769 213.26C314.769 213.26 316.075 211.868 316.548 213.274C317.022 214.68 314.769 220.965 314.683 221.266C314.683 221.266 314.439 221.811 314.138 221.51C313.822 221.209 314.769 213.26 314.769 213.26Z" fill="#EEA886"/>
<path d="M290.578 213.029C290.578 213.029 289.301 211.609 288.798 213.015C288.296 214.421 290.406 220.734 290.506 221.036C290.506 221.036 290.736 221.581 291.051 221.294C291.367 220.993 290.578 213.029 290.578 213.029Z" fill="#EEA886"/>
<path d="M314.769 216.114L313.062 218.395C313.062 218.395 313.105 213.402 312.832 212.613C312.559 211.824 312.143 209.442 311.914 208.868C311.684 208.308 301.698 205.51 292.873 209.686C292.873 209.686 293.261 213.273 292.414 213.589C291.568 213.904 291.984 219.443 291.984 219.443L290.578 217.864C290.578 217.864 288.44 203.545 288.956 202.052C289.487 200.56 291.166 191.578 309.274 196.916C309.274 196.916 314.913 195.725 316.046 199.613C317.194 203.516 314.769 216.114 314.769 216.114Z" fill="#434343"/>
<path d="M311.77 239.516C311.77 239.502 310.249 238.77 310.249 238.77C309.503 237.106 310.063 230.118 310.063 230.118C310.063 230.118 294.911 226.258 295.341 229.214C295.772 232.17 294.036 239.014 294.036 239.014L286.259 242.874C286.259 242.874 294.538 265.114 304.065 262.244C313.592 259.374 317.18 242.07 317.18 242.07L311.77 239.516Z" fill="#EEA886"/>
<path d="M295.542 232.486C295.542 232.486 297.981 235.643 302.229 235.643C305.012 235.643 307.021 234.868 309.79 232.156C309.79 232.156 308.585 237.293 302.243 237.781C302.243 237.766 297.651 238.355 295.542 232.486Z" fill="#A77860"/>
<path d="M251.794 307.158C251.794 307.158 260.532 311.434 258.38 323.071C256.213 334.707 255.266 336.271 257.677 340.82C260.101 345.368 262.942 364.753 260.776 368.44C258.595 372.114 233.844 352.284 230.4 335.654C226.971 319.01 232.581 311.621 234.561 308.866C236.541 306.097 244.074 303.241 251.794 307.158Z" fill="#0E2D3D"/>
<path d="M248.494 577.193H250.474V567.853C250.474 567.853 254.362 570.45 256.801 574.022C259.241 577.61 262.598 577.294 267.706 577.064C272.814 576.835 272.585 574.783 272.126 571.885C271.666 568.986 266.487 568.068 264.808 567.623C263.129 567.164 259.327 560.607 258.107 559.014C256.443 556.833 255.553 554.753 255.553 554.753C255.553 554.753 254.606 550.864 249.871 554.753C245.151 558.641 246.514 566.102 247.045 566.791C247.575 567.48 248.494 577.193 248.494 577.193Z" fill="#163342"/>
<path d="M258.48 567.608C260.231 568.756 264.808 567.608 264.808 567.608C263.517 565.929 255.553 554.723 255.553 554.723C250.718 551.897 248.795 555.785 248.795 555.785C250.775 556.402 256.73 566.475 258.48 567.608Z" fill="#EEA886"/>
<path d="M309.446 395.198C309.446 395.198 312.617 395.801 313.707 394.308C314.625 393.046 316.735 392.07 317.38 391.769C318.241 391.367 320.451 389.143 320.967 390.233C321.484 391.324 317.509 394.079 316.792 394.825C316.075 395.571 320.68 395.901 321.484 396.618C322.273 397.336 321.297 404.941 318.169 404.352C315.027 403.764 312.071 401.052 311.497 401.067C310.924 401.067 309.202 400.722 309.202 400.722L309.446 395.198Z" fill="#EEA886"/>
<path d="M320.781 396.318C320.781 396.318 330.265 398.772 330.767 399.461C331.27 400.149 331.097 400.666 330.208 400.465C329.318 400.279 320.982 398.356 320.982 398.356C320.982 398.356 331.714 403.148 332.245 403.622C332.561 403.909 332.303 404.899 331.815 404.841C331.327 404.784 320.408 400.652 320.408 400.652C320.408 400.652 330.423 405.143 330.753 405.673C331.04 406.133 330.567 406.994 329.806 406.721C329.046 406.434 319.504 402.804 319.504 402.804C319.504 402.804 326.592 406.534 326.606 407.137C326.606 407.51 326.434 408.385 324.626 407.367C322.833 406.348 318.327 404.397 318.327 404.397L320.781 396.318Z" fill="#EEA886"/>
<path d="M222.825 577.825H224.044V570.966C224.044 570.966 226.211 573.204 227.201 576.476C228.191 579.747 231.735 580.723 237.144 580.58C242.554 580.422 242.625 578.284 242.18 575.084C241.721 571.884 237.144 570.206 237.144 570.206C235.092 568.383 229.984 560.793 229.984 560.793C229.984 560.793 226.713 559.918 224.13 561.998C221.562 564.079 222.351 568.756 222.437 569.976C222.523 571.196 222.825 577.825 222.825 577.825Z" fill="#163342"/>
<path d="M226.555 414.425C226.555 414.425 220.113 422.804 218.362 432.748C216.612 442.691 219.395 476.08 219.323 480.987C219.252 485.908 214.675 498.133 215.593 507.402C216.511 516.671 220.113 562.758 220.113 562.758L229.999 560.793C229.999 560.793 229.425 513.802 229.999 509.913C230.573 506.025 231.72 491.863 231.95 490.256C232.18 488.649 246.471 446.623 246.471 439.463C246.442 432.289 242.109 402.716 226.555 414.425Z" fill="#1D3B54"/>
<path d="M258.954 417.695C258.954 417.695 269.543 458.128 270.805 463.724C272.068 469.32 273.89 473.94 273.89 476.322C273.89 481.846 271.839 490.699 271.839 490.699L258.38 555.037H245.567C245.567 555.037 252.712 516.44 252.899 508.893C253.085 501.331 258.911 490.584 257.777 487.385C256.629 484.185 239.368 447.252 239.368 447.252C239.368 447.252 226.297 405.958 258.954 417.695Z" fill="#1D3B54"/>
<path d="M237.144 570.205L229.984 560.792L224.13 561.997C224.13 561.997 225.709 566.216 228.55 569.387C231.921 573.132 237.144 570.205 237.144 570.205Z" fill="#EEA886"/>
<path d="M254.577 348.984C254.577 348.984 258.939 349.401 262.239 352.93C265.54 356.46 268.639 362.099 269.5 363.993C270.361 365.872 282.485 383.363 283.116 383.751C283.748 384.138 289.831 386.175 293.878 387.539C300.105 389.633 312.588 394.167 312.588 394.167L310.106 402.016C310.106 402.016 286.632 394.34 280.749 392.89C273.56 391.126 257.017 369.89 257.017 369.89C257.017 369.89 244.677 355.441 254.577 348.984Z" fill="#285173"/>
<path d="M246.944 345.926C246.944 345.926 252.597 348.595 254.563 348.997C256.529 349.384 264.148 359.285 265.482 362.901C266.817 366.516 265.482 371.94 262.727 378.296C259.972 384.667 262.569 386.776 261.307 393.147C260.044 399.518 260.46 423.322 260.69 426.866C260.919 430.395 223.915 435.762 216.597 429.319C216.597 429.319 221.547 407.854 227.402 401.742C228.664 400.422 228.535 391.583 227.674 389.388C226.813 387.192 217.071 370.763 217.071 370.763C217.071 370.763 216.353 354.105 220.6 350.805C224.288 347.935 234.361 346.916 236.168 346.285C238.005 345.654 243.257 345.381 246.944 345.926Z" fill="#FFBF55"/>
<path d="M249.656 339.396C249.656 339.396 249.484 340.96 249.297 343.055C249.225 343.887 249.139 344.805 249.068 345.752C248.838 348.579 248.666 351.606 248.766 353.156C248.766 353.156 242.883 359.053 236.197 346.283C236.197 346.283 239.009 341.017 236.886 333.843C234.777 326.669 249.656 339.396 249.656 339.396Z" fill="#EEA886"/>
<path d="M266.114 380.648C266.114 380.648 267.534 371.236 266.028 365.511C266.028 365.511 266.028 370.432 263.33 377.42L266.114 380.648Z" fill="#183C59"/>
<path d="M231.677 347.189C231.677 347.189 235.724 359.127 246.829 358.251C257.935 357.376 252.095 348.164 252.095 348.164C252.095 348.164 249.326 346.572 248.551 346.428C247.776 346.285 236.269 346.127 236.269 346.127L231.677 347.189Z" fill="#EEA886"/>
<path d="M252.081 348.164C252.081 348.164 257.892 364.249 257.892 380.649C257.892 397.049 258.365 423.751 260.389 432.188C262.426 440.625 268.194 466.71 268.194 466.71L272.728 464.372C272.728 464.372 261.838 422.747 261.02 419.748C260.202 416.749 261.651 385.039 262.426 382.385C263.201 379.731 266.53 367.907 266.013 364.636C265.367 360.504 261.493 354.391 255.252 349.125L252.081 348.164Z" fill="#285173"/>
<path d="M233.873 346.685C233.873 346.685 237.489 358.264 239.325 373.086C241.162 387.908 233.701 456.708 228.707 472.333L209.337 469.206C209.337 469.206 213.512 420.579 219.166 411.726C224.819 402.873 226.627 395.039 220.514 376.572C214.402 358.106 223.198 348.952 223.198 348.952C223.198 348.952 232.165 346.871 233.873 346.685Z" fill="#285173"/>
<path d="M254.764 395.758L231.276 436.435L205.176 421.369L227.646 380.104L254.764 395.758Z" fill="#616161"/>
<path d="M251.937 397.164L231.075 433.279L207.888 419.892L227.846 383.246L251.937 397.164Z" fill="#E0CEC7"/>
<path d="M244.247 393.922L245.71 391.382L236.326 385.973L234.504 388.297L244.247 393.922Z" fill="#616161"/>
<path d="M243.127 422.782C243.127 422.782 242.066 422.782 241.592 422.567C241.592 422.567 240.774 422.093 240.172 421.792C239.985 421.691 239.813 421.62 239.698 421.577C239.225 421.404 238.12 421.189 237.087 420.472C236.054 419.754 232.366 415.493 232.366 415.493L234.102 412.853L235.379 410.155C235.379 410.155 243.099 410.657 244.146 411.217C244.246 411.274 244.347 411.332 244.433 411.389C245.265 411.949 245.667 412.724 246.069 413.054C246.212 413.183 247.604 414.546 247.561 415.12C247.489 415.923 247.116 416.454 246.643 416.727C246.643 416.727 246.442 418.291 245.667 419.037C245.667 419.037 245.524 420.486 244.304 421.132C244.29 421.103 243.974 422.567 243.127 422.782Z" fill="#EEA886"/>
<path d="M227.201 348.982C227.201 348.982 220.07 346.945 215.98 354.793C211.891 362.656 211.92 365.999 211.374 369.845C210.858 373.46 208.534 383.361 208.29 384.38C208.06 385.398 202.78 397.58 205.205 401.842C207.63 406.117 232.323 418.715 232.165 419.662C232.007 420.609 236.441 410.135 236.441 410.135C236.441 410.135 226.455 404.568 224.819 402.86C222.164 400.077 216.554 397.078 217.702 393.62C219.051 389.559 223.111 375.871 224.058 373.877C225.005 371.868 233.213 351.536 227.201 348.982Z" fill="#285173"/>
<path d="M250.531 308.446C250.531 308.446 263.229 312.435 256.328 334.345C249.441 356.255 232.093 331.805 233.916 318.461C235.724 305.117 250.531 308.446 250.531 308.446Z" fill="#EEA987"/>
<path d="M257.634 321.232C257.634 321.232 251.32 327.416 240.774 328.191C240.774 328.191 236.714 332.954 236.412 334.82C236.412 334.82 227 318.764 238.565 309.136C250.13 299.523 261.881 317.272 257.634 321.232Z" fill="#0E2D3D"/>
<path d="M240.889 328.634C240.803 327.041 239.827 323.411 237.46 324.429C235.092 325.448 237.603 332.838 239.182 332.378C239.182 332.378 241.09 332.407 240.889 328.634Z" fill="#EEA987"/>
<path d="M249.283 343.057C249.211 343.889 249.125 344.807 249.053 345.754C249.053 345.754 243.443 345.424 239.698 337.088C239.956 337.447 244.06 343.473 249.283 343.057Z" fill="#A77860"/>
<path d="M110.276 543.417C118.411 537.692 127.938 497.804 128.512 474.029C128.799 461.861 132.401 456.782 135.572 452.305C138.599 448.029 141.225 444.327 139.704 435.847C136.791 419.634 144.453 412.646 144.54 412.574L143.65 411.556C143.306 411.857 135.314 419.074 138.384 436.077C139.805 443.997 137.466 447.312 134.481 451.516C131.353 455.921 127.465 461.402 127.164 473.986C126.547 499.483 116.818 537.162 109.501 542.298L110.276 543.417Z" fill="url(#paint8_linear_915_518)"/>
<path d="M93.2011 531.781C92.4262 530.044 91.6371 528.237 90.7331 526.343C86.0842 516.528 81.9663 514.907 75.1364 512.238C73.472 511.578 71.578 510.846 69.4975 509.914C59.7262 505.523 61.6202 499.052 63.2846 493.327C63.5142 492.523 63.7581 491.734 63.959 490.945C64.8199 487.588 63.1699 485.894 60.6732 483.355C58.808 481.461 56.4978 479.093 54.7186 475.377C52.7673 471.302 53.7573 469.107 54.9339 467.988C57.4162 465.634 63.1268 466.065 68.5362 469.021C70.2149 469.939 71.5924 471.388 73.0559 472.909C76.4995 476.511 80.7753 481.002 91.6084 481.045C97.7925 481.073 101.164 481.92 102.915 483.9C104.909 486.138 104.522 489.482 104.005 494.116C103.819 495.723 103.618 497.531 103.503 499.497C102.771 511.191 109.673 519.642 109.745 519.728C113.877 524.635 118.956 534.837 116.761 541.107C115.843 543.733 113.791 545.397 110.649 546.029C109.4 546.287 108.253 546.402 107.205 546.402C99.6435 546.373 96.8742 540.088 93.2011 531.781ZM67.8905 470.183C63.0694 467.557 57.904 467.026 55.8665 468.949C54.3169 470.412 55.0487 472.923 55.9383 474.774C57.6314 478.304 59.7549 480.471 61.6346 482.393C64.246 485.062 66.3122 487.171 65.2647 491.261C65.0638 492.064 64.8199 492.882 64.5903 493.686C62.9259 499.368 61.362 504.748 70.0571 508.665C72.1089 509.584 73.9742 510.315 75.6243 510.975C82.5115 513.673 87.0599 515.466 91.9384 525.769C92.8423 527.691 93.6459 529.499 94.4207 531.25C98.6391 540.791 101.179 546.559 110.376 544.694C113.016 544.163 114.738 542.8 115.484 540.648C117.421 535.124 112.787 525.439 108.712 520.574C108.41 520.216 101.394 511.65 102.154 499.396C102.284 497.402 102.484 495.565 102.671 493.958C103.145 489.668 103.503 486.583 101.911 484.79C100.461 483.154 97.276 482.422 91.594 482.393C80.1871 482.336 75.6817 477.63 72.0659 473.842C70.6454 472.306 69.3971 470.986 67.8905 470.183Z" fill="url(#paint9_linear_915_518)"/>
<path d="M110.52 554.151L111.868 554.079C111.797 552.817 110.103 523.044 98.1512 514.334C85.0368 504.778 80.9045 494.505 78.9387 487.603C76.6143 479.482 64.8056 477.301 64.3034 477.215L64.0738 478.535C64.1886 478.549 75.5525 480.644 77.6474 487.962C79.6705 495.05 83.9176 505.61 97.3621 515.41C108.798 523.747 110.505 553.835 110.52 554.151Z" fill="url(#paint10_linear_915_518)"/>
<path d="M108.238 560.836C105.426 559.43 105.526 553.805 105.684 545.282C105.885 534.507 106.143 519.757 100.504 506.183C94.5068 491.763 99.8587 487.559 105.024 483.484C110.807 478.921 116.273 474.617 105.785 455.16C100.964 446.221 99.4426 440.18 100.964 436.134C102.484 432.145 106.732 430.581 111.237 428.931C119.014 426.09 127.824 422.862 126.676 406.404C126.332 401.368 126.92 398.254 128.541 396.647C130.306 394.897 132.903 395.083 135.902 395.299C140.45 395.629 145.587 396.002 150.078 390.162C150.537 388.698 154.827 375.656 159.95 373.417C161.026 372.944 162.088 372.958 163.092 373.432C166.636 375.125 168.688 377.134 169.377 379.573C170.568 383.806 167.468 388.598 163.867 394.122C158.214 402.817 151.814 412.689 158.458 424.412C167.239 439.922 162.604 445.36 156.176 452.864C152.503 457.169 148.328 462.047 145.544 470.011C143.306 476.41 147.122 482.508 150.824 488.42C155.459 495.824 160.251 503.486 150.164 510.129C133.463 521.12 116.976 556.962 116.819 557.321L116.747 557.464L116.618 557.565C113.547 559.975 111.309 561.123 109.616 561.123C109.113 561.152 108.654 561.051 108.238 560.836ZM149.432 509.024C158.429 503.098 154.383 496.641 149.691 489.166C146.003 483.283 141.828 476.611 144.281 469.595C147.151 461.402 151.413 456.423 155.157 452.018C161.442 444.657 165.603 439.793 157.281 425.1C150.236 412.66 157.166 401.985 162.733 393.405C166.148 388.139 169.104 383.605 168.071 379.946C167.497 377.908 165.675 376.172 162.504 374.666C161.858 374.35 161.198 374.364 160.481 374.666C155.731 376.732 151.355 390.549 151.312 390.678L151.283 390.793L151.212 390.894C146.276 397.422 140.465 396.992 135.801 396.662C133.018 396.461 130.808 396.303 129.488 397.623C128.182 398.929 127.695 401.77 128.01 406.333C129.216 423.795 119.502 427.353 111.682 430.208C107.291 431.815 103.503 433.207 102.212 436.622C100.82 440.267 102.327 445.963 106.947 454.529C117.981 474.975 111.797 479.854 105.828 484.56C100.834 488.492 96.1138 492.222 101.724 505.695C107.478 519.527 107.205 534.449 107.004 545.34C106.875 552.772 106.76 558.641 108.812 559.674C110.017 560.277 112.313 559.258 115.642 556.675C117.005 553.734 132.803 519.958 149.432 509.024Z" fill="url(#paint11_linear_915_518)"/>
<path d="M81.8945 404.567C90.3887 401.655 88.6239 418.026 92.211 430.151C95.7981 442.275 132.157 435.431 116.89 465.778C101.638 496.125 136.189 475.922 125.872 502.409C115.556 528.882 124.968 557.206 113.762 550.003C102.542 542.8 107.463 509.454 95.7981 505.494C84.1328 501.534 82.2245 496.914 93.775 486.138C105.325 475.362 63.4999 464.673 73.8307 442.921C84.1329 421.169 72.0802 407.925 81.8945 404.567Z" fill="url(#paint12_linear_915_518)"/>
<path d="M109.845 548.252C110.907 543.718 120.033 503.83 111.524 499.009C104.02 494.762 104.206 478.232 105.369 462.621C106.402 448.804 88.6526 442.347 87.9065 442.074L87.4617 443.337C87.6339 443.394 104.995 449.722 104.034 462.506C102.829 478.533 102.7 495.551 110.864 500.171C117.335 503.83 111.381 535.884 108.54 547.937L109.845 548.252Z" fill="white"/>
<path d="M141.899 534.048L129.775 580.078H102.657L90.5322 534.048H141.899Z" fill="url(#paint13_linear_915_518)"/>
<path d="M141.899 534.048C141.899 534.048 115.197 539.055 115.197 580.078H102.657L90.5322 534.048H141.899Z" fill="url(#paint14_linear_915_518)"/>
<path opacity="0.95" d="M460.118 244.224H425.739C405.81 244.224 389.639 228.068 389.639 208.124V184.334C389.639 164.404 405.795 148.233 425.739 148.233H460.118C480.048 148.233 496.219 164.39 496.219 184.334V208.124C496.204 228.068 480.048 244.224 460.118 244.224Z" fill="url(#paint15_linear_915_518)"/>
<path d="M446.746 226.074H438.294V227.638H446.746V226.074Z" fill="#4598E6"/>
<path d="M450.161 139.84C450.161 139.84 456.976 143.585 454.81 152.783C452.643 161.98 451.825 163.185 453.576 166.901C455.326 170.618 456.876 186.186 454.996 189.041C453.116 191.896 434.119 175.152 432.01 161.75C429.901 148.349 434.65 142.667 436.343 140.543C438.036 138.42 444.149 136.425 450.161 139.84Z" fill="#344052"/>
<path d="M462.945 215.844H455.656C455.297 212.242 454.982 209.746 455.039 209.373C455.14 208.756 447.779 189.443 447.09 187.85C446.401 186.257 443.704 181.967 443.345 177.935C442.986 173.903 448.252 172.268 448.252 172.268C455.355 173.545 457.751 183.359 457.751 183.359C457.751 183.359 460.735 203.274 462.242 208.885C462.644 210.32 462.859 212.859 462.945 215.844Z" fill="#EEA886"/>
<path d="M459.272 188.165L448.41 192.742C448.41 192.742 438.424 167.977 446.789 170.746C455.14 173.501 458.899 178.681 459.272 188.165Z" fill="#EB4747"/>
<path d="M456.861 199.816C456.546 202.269 455.24 210.979 455.541 213.332C455.584 213.719 455.757 214.609 455.986 215.828H429.8C430.503 213.346 431.135 211.137 431.508 209.86C432.785 205.641 431.565 204.508 430.919 201.136C430.676 199.816 429.786 197.305 428.825 194.478C428.509 193.531 428.179 192.541 427.863 191.551C426.715 187.978 426.17 184.334 425.84 182.21C424.262 172.138 432.01 171.176 432.01 171.176C434.894 170.645 439.916 169.096 439.916 169.096L447.793 170.731C447.793 170.731 448.539 171.018 449.63 171.822C450.161 172.209 450.763 172.711 451.395 173.372C452.256 174.261 453.963 176.786 455.685 179.57C456.201 180.417 456.732 181.292 457.234 182.153C458.841 184.922 459.975 187.16 459.932 189.686C459.932 192.168 457.177 197.362 456.861 199.816Z" fill="#EB4747"/>
<path d="M447.807 170.746C447.807 170.746 452.743 179.183 450.907 179.815C449.07 180.446 439.399 178.308 435.626 170.345C435.626 170.33 441.968 167.446 447.807 170.746Z" fill="#EEA886"/>
<path d="M447.104 174.592C447.104 174.592 442.728 176.442 438.754 170.344C438.754 170.344 439.815 163.414 437.563 159.397C435.31 155.393 447.42 164.203 447.42 164.203C447.42 164.203 447.219 165.036 447.018 166.255C446.918 166.886 446.803 167.604 446.731 168.379C446.66 169.024 446.617 169.699 446.588 170.373C446.53 171.923 446.645 173.472 447.104 174.592Z" fill="#EEA886"/>
<path d="M436.214 184.034C435.31 188.669 428.839 194.494 428.839 194.494C428.523 193.547 428.193 192.557 427.877 191.567C432.34 188.726 436.214 184.034 436.214 184.034Z" fill="#393D63"/>
<path d="M434.592 187.736C434.176 189.429 432.297 206.561 432.498 207.149C432.612 207.479 433.531 211.453 434.449 215.844H425.998C425.137 213.003 424.62 210.65 424.749 209.316C425.295 203.533 423.329 185.11 423.329 185.11C423.329 185.11 421.578 173.961 430.819 172.569C430.819 172.569 436.286 173.287 436.616 177.319C436.946 181.365 435.009 186.042 434.592 187.736Z" fill="#EEA886"/>
<path d="M422.64 190.102L434.119 192.785C434.119 192.785 443.216 175.108 435.023 171.879C426.385 168.479 420.574 180.46 422.64 190.102Z" fill="#EB4747"/>
<path d="M449.099 140.817C449.099 140.817 459.071 144.475 452.743 161.679C446.416 178.883 433.516 158.738 435.468 148.163C437.433 137.603 449.099 140.817 449.099 140.817Z" fill="#EEA987"/>
<path d="M454.279 151.275C454.279 151.275 449.013 155.967 440.576 156.197C440.576 156.197 438.596 161.003 438.28 162.481C438.28 162.481 429.929 148.147 439.528 140.915C449.127 133.684 457.823 148.276 454.279 151.275Z" fill="#344052"/>
<path d="M441.709 157.23C441.709 155.953 441.063 153.026 439.126 153.743C437.204 154.461 438.926 160.444 440.203 160.143C440.203 160.143 441.723 160.243 441.709 157.23Z" fill="#EEA987"/>
<path d="M446.588 170.072C441.896 168.78 440.088 164.304 440.031 164.16C443.847 169.082 446.717 168.379 446.717 168.379C446.659 169.01 446.645 169.412 446.588 170.072Z" fill="#A77860"/>
<path d="M468.254 165.61V167.145H477.264V175.611H478.8V165.624H468.254V165.61ZM407.043 175.597H408.579V167.131H417.59V165.596H407.043V175.597V175.597ZM477.264 219.259V227.724H468.254V229.26H478.8V219.273H477.264V219.259ZM408.579 219.259H407.043V229.245H417.59V227.71H408.579V219.259V219.259Z" fill="#4598E6"/>
<path d="M308.499 297.788H297.207V299.883H308.499V297.788Z" fill="#4598E6"/>
<path d="M336.693 217.035V219.072H348.732V230.364H350.769V217.021H336.693V217.035ZM254.936 230.379H256.988V219.087H269.026V217.049H254.936V230.379ZM348.732 288.676V299.983H336.693V302.02H350.784V288.676H348.732V288.676ZM256.974 288.676H254.922V302.02H269.012V299.983H256.974V288.676Z" fill="#4598E6"/>
<path d="M555.061 374.119H545.505C545.333 373.732 545.19 373.402 545.075 373.144C542.234 366.457 527.642 351.105 527.642 351.105C527.642 351.105 527.642 351.119 527.642 351.133L527.627 351.148V351.162C527.613 351.191 527.613 351.205 527.599 351.234C527.584 351.262 527.584 351.306 527.57 351.363C527.556 351.392 527.556 351.42 527.556 351.449C527.541 351.478 527.541 351.492 527.527 351.521C526.924 353.759 523.983 364.893 522.519 374.134H457.894C457.751 373.273 457.564 372.469 457.378 371.709C456.789 369.413 456.387 367.146 456.129 365.023C456.115 364.908 456.101 364.822 456.101 364.707C456.057 364.319 456.014 363.932 455.971 363.545C455.412 357.748 455.828 353.3 455.857 352.841C455.67 353.228 454.364 358.021 452.657 363.932C451.724 367.175 450.648 370.762 449.601 374.134H434.334L453.489 318.892C453.92 318.562 458.884 316.152 462.514 314.43C466.216 312.665 470.678 310.083 474.71 307.873C476.777 306.739 478.714 305.721 480.407 304.946L480.665 304.831V304.817C483.449 303.54 485.3 302.707 485.3 302.707C485.3 302.707 485.3 302.707 485.314 302.707C485.386 302.693 485.816 302.664 486.519 302.593C490.408 302.22 502.475 301.086 506.521 300.857C506.851 300.828 507.138 300.828 507.353 300.813C507.54 300.799 507.683 300.799 507.755 300.813C508.257 300.842 510.754 301.717 514.025 302.951C514.154 302.994 514.269 303.037 514.398 303.095C514.556 303.152 514.699 303.21 514.857 303.267C515.144 303.382 515.431 303.482 515.718 303.597C516.306 303.827 516.909 304.056 517.512 304.3C517.713 304.386 517.942 304.472 518.157 304.544C524.7 307.141 532.19 310.355 533.969 311.632C535.146 312.479 538.819 319.38 543.066 327.918C547.629 342.567 553.225 363.703 555.061 374.119Z" fill="#DECBC4"/>
<path d="M507.64 298.921C507.468 307.602 490.651 312.365 490.651 312.365C490.651 312.365 483.621 303.541 485.3 302.695C485.96 302.364 486.232 301.044 486.304 299.567C486.376 298.16 486.29 296.611 486.204 295.621C486.16 295.004 486.103 294.616 486.103 294.616C486.103 294.616 488.499 292.077 491.57 289.064C496.907 283.783 504.254 277.011 504.268 279.708C504.268 279.852 504.254 280.024 504.211 280.225C502.905 286.28 507.64 298.921 507.64 298.921Z" fill="#EEA886"/>
<path d="M501.155 286.191C501.126 286.249 500.409 287.311 499.189 288.846C496.606 292.089 491.757 297.426 486.29 299.578C486.362 298.172 486.275 296.623 486.189 295.633C485.63 295.618 485.07 295.547 484.525 295.432C486.017 292.82 488.184 290.08 488.184 290.08L491.556 289.075L501.155 286.191Z" fill="#A77860"/>
<path d="M504.383 279.824C502.934 282.995 501.542 285.276 501.154 286.194C500.896 286.783 500.208 287.758 499.189 288.849C496.42 291.833 491.268 295.779 486.203 295.636C485.644 295.621 485.084 295.55 484.539 295.435C482.487 294.99 480.077 294.043 478.757 291.432C468.268 270.885 475.858 254.083 475.858 254.083C475.858 254.083 504.555 245.976 509.032 254.599C512.174 260.669 507.798 272.391 504.383 279.824Z" fill="#EEA886"/>
<path d="M475.844 254.08C475.844 254.08 473.175 253.937 472.515 248.886C471.87 243.893 473.175 242.515 473.175 242.515C473.175 242.515 485.013 237.551 489.274 236.905C493.521 236.26 503.981 235.643 506.435 238.44C506.435 238.44 512.389 237.063 514.011 246.949C516.579 262.632 505.244 277.87 505.244 277.87C505.244 277.87 505.344 267.625 503.077 266.262C500.81 264.899 498.873 268.127 498.873 268.127L494.253 268.96C494.253 268.96 501.269 253.793 492.847 253.234C484.439 252.674 480.665 254.97 475.844 254.08Z" fill="#E8734D"/>
<path d="M499.017 264.053C499.461 259.533 507.626 257.811 507.08 262.546C506.535 267.281 502.518 271.829 500.652 271.672C498.787 271.499 498.672 267.496 499.017 264.053Z" fill="#EEA886"/>
<path d="M546.797 328.349C544.142 319.826 541.832 313.082 540.814 312.35C539.02 311.073 524.858 307.171 518.143 304.545C517.928 304.459 517.713 304.373 517.497 304.301C516.895 304.057 516.278 303.827 515.704 303.598C515.417 303.483 515.116 303.368 514.843 303.268C514.685 303.21 514.542 303.153 514.384 303.096C514.255 303.053 514.14 302.995 514.011 302.952C513.996 302.966 513.996 302.981 513.982 302.981C513.379 303.655 510.28 307.185 506.564 312.479C499.619 322.351 490.565 338.35 491.957 353.128C492.402 357.863 492.947 364.679 493.88 372.312C493.952 372.915 494.023 373.532 494.11 374.135H525.461C525.848 366.142 526.523 355.611 527.556 351.521C527.57 351.493 527.57 351.478 527.584 351.45C527.584 351.421 527.599 351.392 527.599 351.364C527.613 351.321 527.627 351.278 527.627 351.234C527.642 351.206 527.642 351.191 527.656 351.163C527.656 351.148 527.656 351.148 527.656 351.148C527.656 351.134 527.67 351.134 527.67 351.134C527.67 351.134 535.261 363 535.648 374.12H555.377C554.387 363.789 551.36 342.97 546.797 328.349Z" fill="#3C4145"/>
<path d="M480.522 305.032C480.522 305.032 478.154 312.91 475.098 332.581C475.098 332.581 475.098 332.581 475.098 332.596C474.983 333.256 474.897 333.93 474.782 334.619C474.768 334.691 474.753 334.777 474.753 334.863C474.682 335.307 474.61 335.781 474.553 336.24C474.538 336.298 474.538 336.355 474.524 336.412C474.481 336.714 474.423 337.029 474.38 337.359C474.266 338.134 474.151 338.923 474.036 339.741C472.888 347.776 471.353 360.532 469.803 374.149H457.406C456.732 370.361 456.101 366.931 456.158 364.564C456.129 364.607 456.115 364.679 456.101 364.722C455.111 367.462 454.02 370.447 452.915 373.345C452.815 373.618 452.714 373.876 452.614 374.149H431.249L452.528 318.491C452.958 318.161 458.425 315.205 462.055 313.484C465.843 311.676 470.621 309.466 474.854 307.5C476.877 306.568 478.785 305.692 480.392 304.946L480.522 305.032Z" fill="#3C4145"/>
<path d="M509.348 324.489L501.155 329.109L504.656 332.682L496.979 374.12H494.081C493.019 365.741 492.416 358.222 491.943 353.114C489.805 330.271 512.59 304.516 514.011 302.952C515.101 303.368 516.292 303.827 517.512 304.301L509.348 324.489Z" fill="#51565C"/>
<path d="M480.651 304.817C480.651 304.817 477.595 314.804 474.036 339.727C472.888 347.748 471.353 360.518 469.803 374.134H468.598L467.005 334.978L470.908 330.759L467.436 326.426L474.854 307.486C476.877 306.554 478.786 305.678 480.393 304.932L480.651 304.817Z" fill="#51565C"/>
<path d="M514.413 303.038L507.626 298.92C507.626 298.92 507.439 302.636 490.637 312.364L495.415 325.809L514.413 303.038Z" fill="#F5E2D9"/>
<path d="M486.175 300.801C486.175 300.801 486.433 304.818 490.637 312.366L481.325 324.504L480.651 304.818L486.175 300.801Z" fill="#F5E2D9"/>
<path d="M490.666 312.365C490.666 312.365 492.474 319.582 491.814 321.606C491.814 321.606 487.839 323.055 484.998 321.247C484.998 321.233 487.021 316.182 490.666 312.365Z" fill="#D44040"/>
<path d="M488.485 336.9C486.577 349.871 486.577 362.986 487.294 374.12H479.345C479.23 372.556 479.144 370.906 479.044 369.198C477.566 343.529 486.634 320.586 486.634 320.586L490.68 319.567C490.666 319.582 489.36 330.917 488.485 336.9Z" fill="#D44040"/>
<path d="M456.402 352.899C456.101 359.054 456.144 364.535 456.144 364.535C456.144 364.564 456.129 364.736 456.129 365.009C456.115 364.908 456.101 364.808 456.086 364.693C455.096 367.434 454.006 370.418 452.901 373.316C452.643 369.959 452.585 366.817 452.657 363.918C453.102 346.643 458.526 337.589 458.526 337.589C457.292 340.602 456.689 347.059 456.402 352.899Z" fill="#2D3133"/>
<path d="M382.063 374.193L356.652 388.168L331.126 348.007L361.99 337.289L382.063 374.193Z" fill="#292C47"/>
<path d="M380.441 372.987L356.681 386.058L332.819 348.494L361.688 338.465L380.441 372.987Z" fill="white"/>
<path d="M389.151 365.97C389.151 365.97 384.732 363.861 382.78 362.756C380.843 361.651 375.85 360.131 375.434 359.772C375.032 359.413 360.626 358.524 359.751 357.763C358.876 357.003 358.029 359.528 361.76 360.346C365.491 361.164 370.685 363.158 370.972 364.622C371.259 366.085 367.141 366.429 366.724 367.635C366.308 368.84 366.839 368.567 367.428 368.826C368.016 369.084 372.32 366.702 374.214 367.376C376.108 368.051 379.007 367.118 380.456 367.606C381.905 368.108 388.965 370.476 388.965 370.476L389.151 365.97Z" fill="#EEA886"/>
<path d="M355.404 383.132C355.404 383.132 351.687 379.788 349.894 378.382C348.1 376.991 344.714 372.873 344.226 372.629C343.724 372.385 337.281 359.17 336.234 358.639C335.187 358.108 337.224 356.329 339.448 359.529C341.672 362.728 345.575 366.846 347.067 366.545C348.559 366.244 347.268 362.226 348.244 361.365C349.219 360.504 349.162 361.107 349.635 361.566C350.109 362.025 349.535 367.004 350.912 368.525C352.29 370.046 352.534 373.145 353.567 374.322C354.6 375.498 359.593 381.223 359.593 381.223L355.404 383.132Z" fill="#EEA886"/>
<path d="M435.439 561.898C435.439 561.898 436.242 567.479 436.343 568.312C436.443 569.144 445.282 567.824 445.282 567.824L445.999 561.18C445.999 561.18 436.544 561.109 435.439 561.898Z" fill="#424773"/>
<path d="M436.243 567.608C436.243 567.608 433.445 570.965 430.733 572.429C428.021 573.892 423.76 574.481 422.167 575.987C421.005 577.078 417.948 581.798 429.212 581.698C440.461 581.598 445.885 582.358 447.09 580.55C448.295 578.742 445.34 567.206 445.34 567.206C445.34 567.206 442.685 568.182 436.243 567.608Z" fill="#292C47"/>
<path d="M372.091 561.898C372.091 561.898 372.894 567.479 372.995 568.312C373.095 569.144 381.934 567.824 381.934 567.824L382.651 561.18C382.651 561.18 373.196 561.109 372.091 561.898Z" fill="#424773"/>
<path d="M372.894 567.609C372.894 567.609 370.096 570.967 367.385 572.43C364.673 573.894 354.701 575.099 353.108 576.62C351.946 577.71 350.023 582.13 365.864 581.714C377.113 581.427 382.536 582.374 383.742 580.566C384.947 578.758 381.991 567.222 381.991 567.222C381.991 567.222 379.48 568.255 372.894 567.609Z" fill="#292C47"/>
<path d="M428.121 418.529C428.121 418.529 436.429 431.73 435.812 443.653C435.195 455.591 438.825 468.605 440.073 481.074C441.465 494.963 447.162 527.864 447.362 535.297C447.563 542.729 446.473 566.461 446.473 566.461L435.08 566.72C435.08 566.72 425.51 509.211 423.028 503.343C420.545 497.474 408.249 455.634 407.847 450.942C407.417 446.265 428.121 418.529 428.121 418.529Z" fill="#292C47"/>
<path d="M384.387 420.308C384.387 420.308 378.131 453.008 377.299 460.311C376.467 467.615 375.922 495.651 375.506 500.214C375.09 504.777 372.751 559.947 370.541 566.719H385.119C385.119 566.719 396.311 526.615 396.311 507.647C396.311 488.678 404.949 466.395 410.53 453.883C416.112 441.371 428.882 441.07 432.311 417.84C432.297 417.854 389.022 412.947 384.387 420.308Z" fill="#292C47"/>
<path d="M414.246 307.544C414.246 307.544 403.098 303.383 397.947 311.863C392.81 320.357 393.298 337.346 398.922 339.441C404.547 341.536 412.984 340.431 415.868 335.122C418.752 329.813 421.349 322.137 421.22 317C421.105 311.877 417.173 309.036 414.246 307.544Z" fill="#EEA886"/>
<path d="M400.142 339.829C400.142 339.829 400.601 342.842 399.841 344.32C399.08 345.798 414.289 345.841 414.289 345.841C414.289 345.841 415.523 337.777 417.862 330.961C420.201 324.146 400.142 339.829 400.142 339.829Z" fill="#EEA886"/>
<path d="M417.862 330.961C417.862 330.961 416.815 332.697 412.525 332.023C408.234 331.349 403.012 325.652 401.218 325.021C399.424 324.39 399.41 323.342 399.41 323.342L398.291 324.978L396.397 325.093C396.397 325.093 398.133 319.985 395.522 317.904C392.91 315.824 398.234 301.389 411.979 306.196C411.979 306.196 422.54 309.109 422.152 315.106C421.765 321.133 420.23 327.977 417.862 330.961Z" fill="#3A3F47"/>
<path d="M398.937 344.148C398.937 344.148 398.98 341.321 400.271 341.049C401.562 340.776 414.447 339.542 416.026 340.159V343.459C416.026 343.459 412.984 345.324 398.937 344.148Z" fill="#E2D2CA"/>
<path d="M399.697 321.161C399.941 320.157 402.495 317.273 403.485 320.358C404.461 323.443 402.007 327.589 400.63 327.231C399.252 326.872 399.094 323.715 399.697 321.161Z" fill="#EEA886"/>
<path d="M347.771 377.636H347.785C347.698 377.665 347.684 377.665 347.771 377.636Z" fill="#323657"/>
<path d="M437.491 449.966C437.491 449.966 430.647 451.975 418.996 453.266C407.331 454.557 378.203 452.807 378.017 451.429C377.83 450.052 384.287 400.134 383.914 397.551C383.541 394.983 383.354 385.814 383.354 385.814C383.211 388.325 380.657 398.57 377.572 404.166C376.453 406.189 372.708 412.517 370.914 411.082C362.19 404.108 348.674 377.851 347.813 377.621C348.531 377.306 354.213 374.694 355.016 374.422C355.719 374.192 362.018 380.85 365.835 384.996C367.542 386.833 368.748 388.182 368.748 388.182C369.852 385.699 373.856 370.088 375.104 364.679C377.916 352.483 377.486 351.981 377.486 351.981C386.023 349.398 398.965 344.146 398.965 344.146L416.054 343.443C416.054 343.443 431.737 346.901 437.907 349.685C438.495 349.943 438.495 363.675 440.102 367.276L434.98 378.08C434.98 378.08 432.024 399.474 431.407 409.001C431.106 413.377 437.491 449.966 437.491 449.966Z" fill="#FFDF69"/>
<path d="M440.791 385.098C440.346 386.533 438.323 387.753 437.003 388.284C436.156 388.628 435.224 388.729 434.262 388.556L433.588 388.427L421.88 386.261C421.88 386.261 419.311 356.76 437.878 349.687C438.38 349.859 444.894 371.898 440.791 385.098Z" fill="#FFDF69"/>
<path d="M437.003 388.298C436.156 388.642 435.224 388.757 434.262 388.571L433.588 388.442L434.736 373.361L437.003 388.298Z" fill="#AB9546"/>
<path d="M368.719 388.181L367.284 394.236C367.284 394.236 365.734 388.153 365.806 384.996C367.514 386.847 368.719 388.181 368.719 388.181Z" fill="#AB9546"/>
<path d="M417.432 308.548C417.432 308.548 432.053 306.711 417.676 331.132L417.432 308.548Z" fill="#3A3F47"/>
<path d="M342.877 345.855L341.385 343.301L353.094 339.255L354.571 341.795L342.877 345.855Z" fill="#292C47"/>
<g opacity="0.95">
<path d="M566.052 236.477H574.331L571.806 231.211H563.513L566.052 236.477Z" fill="url(#paint16_linear_915_518)"/>
<path d="M562.164 236.477H564.144L561.604 231.211H559.624L562.164 236.477Z" fill="url(#paint17_linear_915_518)"/>
<path d="M533.525 230.206H567.1L565.981 227.58H532.42L533.525 230.206Z" fill="url(#paint18_linear_915_518)"/>
</g>
<path d="M353.266 146.312H340.596C340.166 146.312 339.821 145.967 339.821 145.537V142.796C339.821 142.366 340.166 142.021 340.596 142.021H353.266C353.696 142.021 354.041 142.366 354.041 142.796V145.537C354.041 145.953 353.696 146.312 353.266 146.312Z" fill="url(#paint19_linear_915_518)"/>
<path d="M353.266 156.586H340.596C340.166 156.586 339.821 156.242 339.821 155.811V153.071C339.821 152.64 340.166 152.296 340.596 152.296H353.266C353.696 152.296 354.041 152.64 354.041 153.071V155.811C354.041 156.242 353.696 156.586 353.266 156.586Z" fill="url(#paint20_linear_915_518)"/>
<path d="M353.266 166.859H340.596C340.166 166.859 339.821 166.514 339.821 166.084V163.343C339.821 162.913 340.166 162.568 340.596 162.568H353.266C353.696 162.568 354.041 162.913 354.041 163.343V166.084C354.041 166.514 353.696 166.859 353.266 166.859Z" fill="url(#paint21_linear_915_518)"/>
<path d="M363.18 146.312H360.684C360.253 146.312 359.909 145.967 359.909 145.537V142.796C359.909 142.366 360.253 142.021 360.684 142.021H363.18C363.611 142.021 363.955 142.366 363.955 142.796V145.537C363.955 145.953 363.611 146.312 363.18 146.312Z" fill="url(#paint22_linear_915_518)"/>
<path d="M363.18 156.586H360.684C360.253 156.586 359.909 156.242 359.909 155.811V153.071C359.909 152.64 360.253 152.296 360.684 152.296H363.18C363.611 152.296 363.955 152.64 363.955 153.071V155.811C363.955 156.242 363.611 156.586 363.18 156.586Z" fill="url(#paint23_linear_915_518)"/>
<path d="M363.18 166.859H360.684C360.253 166.859 359.909 166.514 359.909 166.084V163.343C359.909 162.913 360.253 162.568 360.684 162.568H363.18C363.611 162.568 363.955 162.913 363.955 163.343V166.084C363.955 166.514 363.611 166.859 363.18 166.859Z" fill="url(#paint24_linear_915_518)"/>
<path d="M308.111 377.794H322.991L318.442 368.353H303.563L308.111 377.794Z" fill="url(#paint25_linear_915_518)"/>
<path d="M301.152 377.794H304.696L300.148 368.353H296.59L301.152 377.794Z" fill="url(#paint26_linear_915_518)"/>
<defs>
<linearGradient id="paint0_linear_915_518" x1="515.01" y1="493.249" x2="169.959" y2="191.329" gradientUnits="userSpaceOnUse">
<stop stop-color="#DAE3FE"/>
<stop offset="1" stop-color="#E9EFFD"/>
</linearGradient>
<linearGradient id="paint1_linear_915_518" x1="72.9039" y1="186.537" x2="180.724" y2="209.37" gradientUnits="userSpaceOnUse">
<stop stop-color="#4F52FF"/>
<stop offset="1" stop-color="#4042E2"/>
</linearGradient>
<linearGradient id="paint2_linear_915_518" x1="458.516" y1="27.0204" x2="450.94" y2="161.493" gradientUnits="userSpaceOnUse">
<stop stop-color="#4F52FF"/>
<stop offset="1" stop-color="#4042E2"/>
</linearGradient>
<linearGradient id="paint3_linear_915_518" x1="243.503" y1="81.5434" x2="435.042" y2="417.688" gradientUnits="userSpaceOnUse">
<stop stop-color="#4F52FF"/>
<stop offset="1" stop-color="#4042E2"/>
</linearGradient>
<linearGradient id="paint4_linear_915_518" x1="312.933" y1="457.165" x2="301.914" y2="257.44" gradientUnits="userSpaceOnUse">
<stop stop-color="#D1D7E0"/>
<stop offset="1" stop-color="#EBEBFF"/>
</linearGradient>
<linearGradient id="paint5_linear_915_518" x1="498.514" y1="519.517" x2="498.514" y2="308.142" gradientUnits="userSpaceOnUse">
<stop stop-color="#D1D7E0"/>
<stop offset="1" stop-color="#EBEBFF"/>
</linearGradient>
<linearGradient id="paint6_linear_915_518" x1="21.0001" y1="580.59" x2="565.929" y2="580.59" gradientUnits="userSpaceOnUse">
<stop offset="0.00520833" stop-color="#1A2257"/>
<stop offset="1" stop-color="#5E60F2"/>
</linearGradient>
<linearGradient id="paint7_linear_915_518" x1="302.855" y1="388.988" x2="302.855" y2="234.429" gradientUnits="userSpaceOnUse">
<stop stop-color="#D1D7E0"/>
<stop offset="1" stop-color="#EBEBFF"/>
</linearGradient>
<linearGradient id="paint8_linear_915_518" x1="144.529" y1="477.496" x2="109.495" y2="477.496" gradientUnits="userSpaceOnUse">
<stop stop-color="#3076A1"/>
<stop offset="1" stop-color="#48C9B6"/>
</linearGradient>
<linearGradient id="paint9_linear_915_518" x1="117.309" y1="506.414" x2="53.6188" y2="506.414" gradientUnits="userSpaceOnUse">
<stop stop-color="#3076A1"/>
<stop offset="1" stop-color="#48C9B6"/>
</linearGradient>
<linearGradient id="paint10_linear_915_518" x1="111.864" y1="515.677" x2="64.0606" y2="515.677" gradientUnits="userSpaceOnUse">
<stop stop-color="#3076A1"/>
<stop offset="1" stop-color="#48C9B6"/>
</linearGradient>
<linearGradient id="paint11_linear_915_518" x1="169.649" y1="467.115" x2="97.8634" y2="467.115" gradientUnits="userSpaceOnUse">
<stop stop-color="#3076A1"/>
<stop offset="1" stop-color="#48C9B6"/>
</linearGradient>
<linearGradient id="paint12_linear_915_518" x1="126.907" y1="545.474" x2="85.1111" y2="420.087" gradientUnits="userSpaceOnUse">
<stop stop-color="#3076A1"/>
<stop offset="1" stop-color="#48C9B6"/>
</linearGradient>
<linearGradient id="paint13_linear_915_518" x1="94.5696" y1="627.363" x2="115.468" y2="537.276" gradientUnits="userSpaceOnUse">
<stop stop-color="#C9C4C1"/>
<stop offset="1" stop-color="#FFF6DE"/>
</linearGradient>
<linearGradient id="paint14_linear_915_518" x1="90.5295" y1="557.062" x2="141.903" y2="557.062" gradientUnits="userSpaceOnUse">
<stop stop-color="#C9C4C1"/>
<stop offset="1" stop-color="#FFF6DE"/>
</linearGradient>
<linearGradient id="paint15_linear_915_518" x1="442.922" y1="258.32" x2="442.922" y2="171.255" gradientUnits="userSpaceOnUse">
<stop stop-color="#D1D7E0"/>
<stop offset="1" stop-color="#EBEBFF"/>
</linearGradient>
<linearGradient id="paint16_linear_915_518" x1="563.51" y1="233.847" x2="574.337" y2="233.847" gradientUnits="userSpaceOnUse">
<stop stop-color="#D1D7E0"/>
<stop offset="1" stop-color="#EBEBFF"/>
</linearGradient>
<linearGradient id="paint17_linear_915_518" x1="559.631" y1="233.847" x2="564.144" y2="233.847" gradientUnits="userSpaceOnUse">
<stop stop-color="#D1D7E0"/>
<stop offset="1" stop-color="#EBEBFF"/>
</linearGradient>
<linearGradient id="paint18_linear_915_518" x1="532.414" y1="228.895" x2="567.095" y2="228.895" gradientUnits="userSpaceOnUse">
<stop stop-color="#D1D7E0"/>
<stop offset="1" stop-color="#EBEBFF"/>
</linearGradient>
<linearGradient id="paint19_linear_915_518" x1="339.814" y1="144.163" x2="354.037" y2="144.163" gradientUnits="userSpaceOnUse">
<stop stop-color="#D1D7E0"/>
<stop offset="1" stop-color="#EBEBFF"/>
</linearGradient>
<linearGradient id="paint20_linear_915_518" x1="339.814" y1="154.443" x2="354.037" y2="154.443" gradientUnits="userSpaceOnUse">
<stop stop-color="#D1D7E0"/>
<stop offset="1" stop-color="#EBEBFF"/>
</linearGradient>
<linearGradient id="paint21_linear_915_518" x1="339.814" y1="164.721" x2="354.037" y2="164.721" gradientUnits="userSpaceOnUse">
<stop stop-color="#D1D7E0"/>
<stop offset="1" stop-color="#EBEBFF"/>
</linearGradient>
<linearGradient id="paint22_linear_915_518" x1="359.91" y1="144.163" x2="363.958" y2="144.163" gradientUnits="userSpaceOnUse">
<stop stop-color="#D1D7E0"/>
<stop offset="1" stop-color="#EBEBFF"/>
</linearGradient>
<linearGradient id="paint23_linear_915_518" x1="359.91" y1="154.443" x2="363.958" y2="154.443" gradientUnits="userSpaceOnUse">
<stop stop-color="#D1D7E0"/>
<stop offset="1" stop-color="#EBEBFF"/>
</linearGradient>
<linearGradient id="paint24_linear_915_518" x1="359.91" y1="164.721" x2="363.958" y2="164.721" gradientUnits="userSpaceOnUse">
<stop stop-color="#D1D7E0"/>
<stop offset="1" stop-color="#EBEBFF"/>
</linearGradient>
<linearGradient id="paint25_linear_915_518" x1="303.558" y1="373.078" x2="322.992" y2="373.078" gradientUnits="userSpaceOnUse">
<stop stop-color="#D1D7E0"/>
<stop offset="1" stop-color="#EBEBFF"/>
</linearGradient>
<linearGradient id="paint26_linear_915_518" x1="296.596" y1="373.078" x2="304.696" y2="373.078" gradientUnits="userSpaceOnUse">
<stop stop-color="#D1D7E0"/>
<stop offset="1" stop-color="#EBEBFF"/>
</linearGradient>
</defs>
</svg>
