<svg width="236" height="49" viewBox="0 0 236 49" fill="none" xmlns="http://www.w3.org/2000/svg">
    <path fill-rule="evenodd" clip-rule="evenodd" d="M74.0958 8.85742C65.0405 8.85742 58.3926 14.7781 58.3926 23.1303C58.3926 31.4819 65.0405 37.4026 74.0952 37.4026C79.3567 37.4026 83.5985 35.5597 86.372 32.2267L81.2329 27.7572C79.4385 29.8348 77.2354 30.9725 74.5032 30.9725C69.8121 30.9725 66.55 27.8353 66.55 23.1303C66.55 18.4247 69.8128 15.2881 74.5032 15.2881C77.2354 15.2881 79.4385 16.4251 81.2329 18.5034L86.372 14.0333C83.5985 10.7009 79.3573 8.85742 74.0958 8.85742ZM97.8838 15.2458H102.491C105.926 15.2458 107.642 16.8014 107.642 19.4637C107.642 22.0839 105.925 23.6402 102.491 23.6402H97.8838V15.2458ZM97.8837 29.9056H102.408L107.726 37.5216H116.605L110.281 28.5137C113.925 26.793 116.019 23.681 116.019 19.4637C116.019 12.9116 110.994 8.85742 102.994 8.85742H89.5911V37.5216H97.8837V29.9056ZM135.87 27.244V37.5216H127.577V27.1211L116.395 8.85742H125.148L132.1 20.2416L139.052 8.85742H147.094L135.87 27.244ZM161.961 15.2458C165.395 15.2458 167.113 16.8014 167.113 19.4637C167.113 22.0839 165.395 23.6402 161.961 23.6402H157.353L157.354 15.2458H161.961ZM162.464 30.0279C170.463 30.0279 175.489 25.9744 175.489 19.4637C175.489 12.911 170.463 8.85742 162.464 8.85742H149.062L149.061 37.5216H157.353V30.0279H162.464ZM185.874 15.2859H176.87V8.85742H203.129V15.2859H194.167V37.5209H185.874V15.2859ZM219.901 15.288C224.153 15.288 227.481 18.3856 227.481 23.1302C227.481 27.8742 224.153 30.9725 219.901 30.9725C215.651 30.9725 212.322 27.8742 212.322 23.1302C212.322 18.3856 215.651 15.288 219.901 15.288ZM219.901 8.85742C210.918 8.85742 204.302 14.8959 204.301 23.1303C204.301 31.3641 210.918 37.4026 219.901 37.4026C228.885 37.4026 235.502 31.3641 235.502 23.1303C235.502 14.8959 228.886 8.85742 219.901 8.85742Z" fill="#0E1042"/>
    <path fill-rule="evenodd" clip-rule="evenodd" d="M91.1433 43.9783V42.0518H94.7735V40.9707H90.0215V48.107H94.8875V47.0264H91.1433V45.0589H94.3931V43.9783H91.1433ZM108.439 48.107H109.485L107.593 44.3964L109.337 40.9707H108.313L107.038 43.4482L105.769 40.9707H104.753L106.511 44.447L104.619 48.107H105.643L107.038 45.4157L108.439 48.107ZM125.29 42.0594L124.629 42.9265C124.14 42.3714 123.441 42.029 122.761 42.029C121.42 42.029 120.367 43.1177 120.367 44.5088C120.367 45.8998 121.42 46.9981 122.761 46.9981C123.432 46.9981 124.121 46.6755 124.629 46.1617L125.3 46.9475C124.619 47.6534 123.652 48.107 122.704 48.107C120.74 48.107 119.217 46.5445 119.217 44.5184C119.217 42.5129 120.759 40.9707 122.742 40.9707C123.69 40.9707 124.639 41.3843 125.29 42.0594ZM139.932 45.1508V48.107H141.114V40.9707H139.932V44.0701H136.214V40.9707H135.032V48.107H136.214V45.1508H139.932ZM154.519 42.4477L153.194 45.403H155.843L154.519 42.4477ZM152.753 46.4003L152.08 47.9018H150.846L153.947 41.2504H155.161L158.231 47.9018H156.967L156.295 46.4003H152.753ZM169.145 42.9889L172.883 48.107H174.045V40.9707H172.883V46.0985L169.125 40.9707H167.963V48.107H169.145V42.9889ZM189.822 44.5892V47.1893C189.152 47.7338 188.159 48.107 187.253 48.107C185.298 48.107 183.777 46.545 183.777 44.529C183.777 42.5129 185.317 40.9707 187.319 40.9707C188.264 40.9707 189.208 41.3535 189.86 41.9587L189.227 42.8355C188.717 42.3319 188.008 42.029 187.319 42.029C185.968 42.029 184.911 43.1278 184.911 44.529C184.911 45.9402 185.977 47.0385 187.329 47.0385C187.82 47.0385 188.377 46.857 188.849 46.5546V44.5892H189.822ZM200.713 43.9783L200.714 42.0513H204.344V40.9707H199.592V48.107H204.458V47.0264H200.713V45.0589H203.964V43.9783H200.713Z" fill="#7C7C7C"/>
    <mask id="masklogo" mask-type="alpha" maskUnits="userSpaceOnUse" x="22" y="2" width="27" height="47">
        <path fill-rule="evenodd" clip-rule="evenodd" d="M22.0312 2.25586H48.6608V48.1076H22.0312V2.25586Z" fill="white"/>
    </mask>
    <g mask="url(#masklogo)">
        <path fill-rule="evenodd" clip-rule="evenodd" d="M38.0999 4.70885L39.4573 2.573L29.3776 2.25586L34.1336 10.9496L35.6683 8.53464C40.883 12.1265 44.0596 18.0275 44.0596 24.3193C44.0596 34.2084 36.4083 42.384 26.5894 43.4828L26.49 37.9751C30.6044 37.2962 34.2766 34.8532 36.4078 31.2634L32.4282 29.0048C30.7202 31.8812 27.5487 33.6678 24.1517 33.6678C23.4717 33.6678 22.7025 33.5972 22.0312 33.4634V48.1077H24.3311C37.7468 48.1077 48.6608 37.4365 48.6608 24.3193C48.6608 16.4743 44.6571 9.12184 38.0999 4.70885" fill="#0E1042"/>
    </g>
    <path fill-rule="evenodd" clip-rule="evenodd" d="M26.6172 10.6163V0.53125H24.3302C10.914 0.53125 0 11.2025 0 24.3192C0 32.1712 4.01088 39.5296 10.5778 43.9416L9.2342 45.9998L19.3093 46.4407L14.6589 37.6899L13.0555 40.1464C7.80346 36.5591 4.60173 30.636 4.60173 24.3192C4.60173 14.4586 12.2079 6.302 21.9863 5.16568L21.9945 10.5922C21.54 10.6639 21.0926 10.7591 20.6524 10.8728V10.8583C14.5082 12.3794 9.94803 17.8295 9.94803 24.3031C9.94803 29.3178 12.6896 33.7103 16.7794 36.1462C16.804 36.1608 16.827 36.1768 16.8506 36.1913V36.1878C17.6275 36.6443 18.4474 37.0386 19.3108 37.3447V32.3746C18.3787 31.84 17.5486 31.1541 16.8506 30.3555V30.3535C15.3886 28.668 14.5897 26.5547 14.5897 24.3197C14.5897 19.1647 18.8789 14.9711 24.1514 14.9711C27.5279 14.9711 30.6896 16.7422 32.4027 19.5931L36.3705 17.3149C34.2357 13.7602 30.706 11.2922 26.6172 10.6163" fill="#00B04C"/>
</svg>
